# xmcd
#
# Track frame offsets:
#	150
#	13179
#	27228
#	41237
#	52940
#	65128
#	79489
#	92719
#	104433
#	114785
#	128418
#	139987
#	153363
#	167393
#	180462
#	194162
#	206269
#	221415
#	234771
#	249340
#
# Disc length: 3525 seconds
# Revision: 0
# Processed by: cddbd v1.5.2PL0 Copyright (c) Steve Scherf et al.
# Submitted via: dBpowerAMP V12.0
#
DISCID=0b0dc314
DTITLE=Muddy Waters - 01 The Absolutely Essential Collection
DYEAR=2016
DGENRE=Blues
TTITLE0=I'm Your Hoochie Coochie Man
TTITLE1=Rollin' Stone
TTITLE2=I Be's Troubled
TTITLE3=Gypsy Woman
TTITLE4=I can't be Satisfied
TTITLE5=I Feel Like Going Home
TTITLE6=Down South Blues
TTITLE7=You're Gonna Miss Me (When I'm Dead and Gone)
TTITLE8=Mean Red Spider
TTITLE9=Rollin' and Tumblin' Pt. 1
TTITLE10=Rollin' and Tumblin' Pt. 2
TTITLE11=Walkin' Blues
TTITLE12=Your Gonna Need My Help I Said
TTITLE13=Louisianna Blues
TTITLE14=Sad Letter Blues
TTITLE15=Long Distance Call
TTITLE16=Honey Bee
TTITLE17=She Moves Me
TTITLE18=Still a Fool
TTITLE19=Standing Around Crying
EXTD=
EXTT0=
EXTT1=
EXTT2=
EXTT3=
EXTT4=
EXTT5=
EXTT6=
EXTT7=
EXTT8=
EXTT9=
EXTT10=
EXTT11=
EXTT12=
EXTT13=
EXTT14=
EXTT15=
EXTT16=
EXTT17=
EXTT18=
EXTT19=
PLAYORDER=
